<?xml version="1.0" encoding="utf-8" standalone="no"?>
<!DOCTYPE svg PUBLIC "-//W3C//DTD SVG 1.1//EN"
  "http://www.w3.org/Graphics/SVG/1.1/DTD/svg11.dtd">
<svg xmlns:xlink="http://www.w3.org/1999/xlink" width="338.4pt" height="338.4pt" viewBox="0 0 338.4 338.4" xmlns="http://www.w3.org/2000/svg" version="1.1">
 <metadata>
  <rdf:RDF xmlns:dc="http://purl.org/dc/elements/1.1/" xmlns:cc="http://creativecommons.org/ns#" xmlns:rdf="http://www.w3.org/1999/02/22-rdf-syntax-ns#">
   <cc:Work>
    <dc:type rdf:resource="http://purl.org/dc/dcmitype/StillImage"/>
    <dc:date>2024-05-20T17:25:46.840079</dc:date>
    <dc:format>image/svg+xml</dc:format>
    <dc:creator>
     <cc:Agent>
      <dc:title>Matplotlib v3.8.4, https://matplotlib.org/</dc:title>
     </cc:Agent>
    </dc:creator>
   </cc:Work>
  </rdf:RDF>
 </metadata>
 <defs>
  <style type="text/css">*{stroke-linejoin: round; stroke-linecap: butt}</style>
 </defs>
 <g id="figure_1">
  <g id="patch_1">
   <path d="M 0 338.4 
L 338.4 338.4 
L 338.4 0 
L 0 0 
z
" style="fill: #ffffff"/>
  </g>
  <g id="axes_1">
   <g id="patch_2">
    <path d="M 10.7 327.7 
L 331.2 327.7 
L 331.2 7.2 
L 10.7 7.2 
z
" style="fill: #ffffff"/>
   </g>
   <g id="Quiver_1">
    <path d="M 41.900146 296.499854 
L 29.072221 283.671929 
L 28.222367 286.22149 
L 22.273389 275.173389 
L 33.32149 281.122367 
L 30.771929 281.972221 
L 43.599854 294.800146 
L 41.900146 296.499854 
" clip-path="url(#p1562301512)"/>
    <path d="M 78.400566 296.348576 
L 70.061596 284.674018 
L 68.804159 287.049175 
L 64.752421 275.173389 
L 74.672195 282.857721 
L 72.017607 283.276866 
L 80.356577 294.951424 
L 78.400566 296.348576 
" clip-path="url(#p1562301512)"/>
    <path d="M 114.902445 296.123442 
L 110.387731 285.589108 
L 108.651778 287.640689 
L 107.231452 275.173389 
L 115.279962 284.800038 
L 112.597126 284.642224 
L 117.11184 295.176558 
L 114.902445 296.123442 
" clip-path="url(#p1562301512)"/>
    <path d="M 151.445919 295.819971 
L 150.050426 286.05152 
L 147.840805 287.581257 
L 149.710484 275.173389 
L 154.979579 286.561432 
L 152.430017 285.711578 
L 153.82551 295.480029 
L 151.445919 295.819971 
" clip-path="url(#p1562301512)"/>
    <path d="M 188.07449 295.480029 
L 189.469983 285.711578 
L 186.920421 286.561432 
L 192.189516 275.173389 
L 194.059195 287.581257 
L 191.849574 286.05152 
L 190.454081 295.819971 
L 188.07449 295.480029 
" clip-path="url(#p1562301512)"/>
    <path d="M 224.78816 295.176558 
L 229.302874 284.642224 
L 226.620038 284.800038 
L 234.668548 275.173389 
L 233.248222 287.640689 
L 231.512269 285.589108 
L 226.997555 296.123442 
L 224.78816 295.176558 
" clip-path="url(#p1562301512)"/>
    <path d="M 261.543423 294.951424 
L 269.882393 283.276866 
L 267.227805 282.857721 
L 277.147579 275.173389 
L 273.095841 287.049175 
L 271.838404 284.674018 
L 263.499434 296.348576 
L 261.543423 294.951424 
" clip-path="url(#p1562301512)"/>
    <path d="M 298.300146 294.800146 
L 311.128071 281.972221 
L 308.57851 281.122367 
L 319.626611 275.173389 
L 313.677633 286.22149 
L 312.827779 283.671929 
L 299.999854 296.499854 
L 298.300146 294.800146 
" clip-path="url(#p1562301512)"/>
    <path d="M 42.051424 259.999434 
L 30.376866 251.660465 
L 29.957721 254.315052 
L 22.273389 244.395278 
L 34.149175 248.447017 
L 31.774018 249.704453 
L 43.448576 258.043423 
L 42.051424 259.999434 
" clip-path="url(#p1562301512)"/>
    <path d="M 78.528717 259.871283 
L 71.551252 252.893817 
L 70.701398 255.443379 
L 64.752421 244.395278 
L 75.800522 250.344256 
L 73.25096 251.194109 
L 80.228425 258.171575 
L 78.528717 259.871283 
" clip-path="url(#p1562301512)"/>
    <path d="M 114.976544 259.639788 
L 111.766089 254.289031 
L 110.32325 256.55635 
L 107.231452 244.395278 
L 116.506846 252.846192 
L 113.827288 253.052312 
L 117.037742 258.403069 
L 114.976544 259.639788 
" clip-path="url(#p1562301512)"/>
    <path d="M 151.457179 259.257136 
L 150.653312 255.237803 
L 148.531949 256.887753 
L 149.710484 244.395278 
L 155.603161 255.473511 
L 153.010383 254.766389 
L 153.81425 258.785721 
L 151.457179 259.257136 
" clip-path="url(#p1562301512)"/>
    <path d="M 188.08575 258.785721 
L 188.889617 254.766389 
L 186.296839 255.473511 
L 192.189516 244.395278 
L 193.368051 256.887753 
L 191.246688 255.237803 
L 190.442821 259.257136 
L 188.08575 258.785721 
" clip-path="url(#p1562301512)"/>
    <path d="M 224.862258 258.403069 
L 228.072712 253.052312 
L 225.393154 252.846192 
L 234.668548 244.395278 
L 231.57675 256.55635 
L 230.133911 254.289031 
L 226.923456 259.639788 
L 224.862258 258.403069 
" clip-path="url(#p1562301512)"/>
    <path d="M 261.671575 258.171575 
L 268.64904 251.194109 
L 266.099478 250.344256 
L 277.147579 244.395278 
L 271.198602 255.443379 
L 270.348748 252.893817 
L 263.371283 259.871283 
L 261.671575 258.171575 
" clip-path="url(#p1562301512)"/>
    <path d="M 298.451424 258.043423 
L 310.125982 249.704453 
L 307.750825 248.447017 
L 319.626611 244.395278 
L 311.942279 254.315052 
L 311.523134 251.660465 
L 299.848576 259.999434 
L 298.451424 258.043423 
" clip-path="url(#p1562301512)"/>
    <path d="M 42.276558 223.497555 
L 31.742224 218.98284 
L 31.900038 221.665677 
L 22.273389 213.617167 
L 34.740689 215.037492 
L 32.689108 216.773445 
L 43.223442 221.28816 
L 42.276558 223.497555 
" clip-path="url(#p1562301512)"/>
    <path d="M 78.760212 223.423456 
L 73.409455 220.213002 
L 73.203335 222.89256 
L 64.752421 213.617167 
L 76.913493 216.708965 
L 74.646174 218.151804 
L 79.996931 221.362258 
L 78.760212 223.423456 
" clip-path="url(#p1562301512)"/>
    <path d="M 115.157289 223.242711 
L 114.030284 222.115706 
L 113.18043 224.665268 
L 107.231452 213.617167 
L 118.279554 219.566144 
L 115.729992 220.415998 
L 116.856997 221.543003 
L 115.157289 223.242711 
" clip-path="url(#p1562301512)"/>
    <path d="M 151.758145 222.68538 
L 151.465622 221.807811 
L 150.003007 223.270426 
L 149.710484 213.617167 
L 155.268421 221.515288 
L 153.22076 221.222765 
L 153.513283 222.100334 
L 151.758145 222.68538 
" clip-path="url(#p1562301512)"/>
    <path d="M 188.386717 222.100334 
L 188.67924 221.222765 
L 186.631579 221.515288 
L 192.189516 213.617167 
L 191.896993 223.270426 
L 190.434378 221.807811 
L 190.141855 222.68538 
L 188.386717 222.100334 
" clip-path="url(#p1562301512)"/>
    <path d="M 225.043003 221.543003 
L 226.170008 220.415998 
L 223.620446 219.566144 
L 234.668548 213.617167 
L 228.71957 224.665268 
L 227.869716 222.115706 
L 226.742711 223.242711 
L 225.043003 221.543003 
" clip-path="url(#p1562301512)"/>
    <path d="M 261.903069 221.362258 
L 267.253826 218.151804 
L 264.986507 216.708965 
L 277.147579 213.617167 
L 268.696665 222.89256 
L 268.490545 220.213002 
L 263.139788 223.423456 
L 261.903069 221.362258 
" clip-path="url(#p1562301512)"/>
    <path d="M 298.676558 221.28816 
L 309.210892 216.773445 
L 307.159311 215.037492 
L 319.626611 213.617167 
L 309.999962 221.665677 
L 310.157776 218.98284 
L 299.623442 223.497555 
L 298.676558 221.28816 
" clip-path="url(#p1562301512)"/>
    <path d="M 42.580029 186.954081 
L 32.811578 185.558588 
L 33.661432 188.10815 
L 22.273389 182.839056 
L 34.681257 180.969377 
L 33.15152 183.178997 
L 42.919971 184.57449 
L 42.580029 186.954081 
" clip-path="url(#p1562301512)"/>
    <path d="M 79.142864 186.942821 
L 75.123532 186.138955 
L 75.830653 188.731733 
L 64.752421 182.839056 
L 77.244896 181.66052 
L 75.594946 183.781884 
L 79.614279 184.58575 
L 79.142864 186.942821 
" clip-path="url(#p1562301512)"/>
    <path d="M 115.71462 186.641855 
L 114.837051 186.349332 
L 115.129574 188.396993 
L 107.231452 182.839056 
L 116.884712 183.131579 
L 115.422097 184.594194 
L 116.299666 184.886717 
L 115.71462 186.641855 
" clip-path="url(#p1562301512)"/>
    <path d="M 152.343191 186.056809 
L 152.050668 185.764286 
L 151.758145 186.641855 
L 149.710484 182.839056 
L 153.513283 184.886717 
L 152.635714 185.17924 
L 152.928237 185.471763 
L 152.343191 186.056809 
" clip-path="url(#p1562301512)"/>
    <path d="M 188.971763 185.471763 
L 189.264286 185.17924 
L 188.386717 184.886717 
L 192.189516 182.839056 
L 190.141855 186.641855 
L 189.849332 185.764286 
L 189.556809 186.056809 
L 188.971763 185.471763 
" clip-path="url(#p1562301512)"/>
    <path d="M 225.600334 184.886717 
L 226.477903 184.594194 
L 225.015288 183.131579 
L 234.668548 182.839056 
L 226.770426 188.396993 
L 227.062949 186.349332 
L 226.18538 186.641855 
L 225.600334 184.886717 
" clip-path="url(#p1562301512)"/>
    <path d="M 262.285721 184.58575 
L 266.305054 183.781884 
L 264.655104 181.66052 
L 277.147579 182.839056 
L 266.069347 188.731733 
L 266.776468 186.138955 
L 262.757136 186.942821 
L 262.285721 184.58575 
" clip-path="url(#p1562301512)"/>
    <path d="M 298.980029 184.57449 
L 308.74848 183.178997 
L 307.218743 180.969377 
L 319.626611 182.839056 
L 308.238568 188.10815 
L 309.088422 185.558588 
L 299.319971 186.954081 
L 298.980029 184.57449 
" clip-path="url(#p1562301512)"/>
    <path d="M 42.919971 150.32551 
L 33.15152 151.721003 
L 34.681257 153.930623 
L 22.273389 152.060944 
L 33.661432 146.79185 
L 32.811578 149.341412 
L 42.580029 147.945919 
L 42.919971 150.32551 
" clip-path="url(#p1562301512)"/>
    <path d="M 79.614279 150.31425 
L 75.594946 151.118116 
L 77.244896 153.23948 
L 64.752421 152.060944 
L 75.830653 146.168267 
L 75.123532 148.761045 
L 79.142864 147.957179 
L 79.614279 150.31425 
" clip-path="url(#p1562301512)"/>
    <path d="M 116.299666 150.013283 
L 115.422097 150.305806 
L 116.884712 151.768421 
L 107.231452 152.060944 
L 115.129574 146.503007 
L 114.837051 148.550668 
L 115.71462 148.258145 
L 116.299666 150.013283 
" clip-path="url(#p1562301512)"/>
    <path d="M 152.928237 149.428237 
L 152.635714 149.72076 
L 153.513283 150.013283 
L 149.710484 152.060944 
L 151.758145 148.258145 
L 152.050668 149.135714 
L 152.343191 148.843191 
L 152.928237 149.428237 
" clip-path="url(#p1562301512)"/>
    <path d="M 189.556809 148.843191 
L 189.849332 149.135714 
L 190.141855 148.258145 
L 192.189516 152.060944 
L 188.386717 150.013283 
L 189.264286 149.72076 
L 188.971763 149.428237 
L 189.556809 148.843191 
" clip-path="url(#p1562301512)"/>
    <path d="M 226.18538 148.258145 
L 227.062949 148.550668 
L 226.770426 146.503007 
L 234.668548 152.060944 
L 225.015288 151.768421 
L 226.477903 150.305806 
L 225.600334 150.013283 
L 226.18538 148.258145 
" clip-path="url(#p1562301512)"/>
    <path d="M 262.757136 147.957179 
L 266.776468 148.761045 
L 266.069347 146.168267 
L 277.147579 152.060944 
L 264.655104 153.23948 
L 266.305054 151.118116 
L 262.285721 150.31425 
L 262.757136 147.957179 
" clip-path="url(#p1562301512)"/>
    <path d="M 299.319971 147.945919 
L 309.088422 149.341412 
L 308.238568 146.79185 
L 319.626611 152.060944 
L 307.218743 153.930623 
L 308.74848 151.721003 
L 298.980029 150.32551 
L 299.319971 147.945919 
" clip-path="url(#p1562301512)"/>
    <path d="M 43.223442 113.61184 
L 32.689108 118.126555 
L 34.740689 119.862508 
L 22.273389 121.282833 
L 31.900038 113.234323 
L 31.742224 115.91716 
L 42.276558 111.402445 
L 43.223442 113.61184 
" clip-path="url(#p1562301512)"/>
    <path d="M 79.996931 113.537742 
L 74.646174 116.748196 
L 76.913493 118.191035 
L 64.752421 121.282833 
L 73.203335 112.00744 
L 73.409455 114.686998 
L 78.760212 111.476544 
L 79.996931 113.537742 
" clip-path="url(#p1562301512)"/>
    <path d="M 116.856997 113.356997 
L 115.729992 114.484002 
L 118.279554 115.333856 
L 107.231452 121.282833 
L 113.18043 110.234732 
L 114.030284 112.784294 
L 115.157289 111.657289 
L 116.856997 113.356997 
" clip-path="url(#p1562301512)"/>
    <path d="M 153.513283 112.799666 
L 153.22076 113.677235 
L 155.268421 113.384712 
L 149.710484 121.282833 
L 150.003007 111.629574 
L 151.465622 113.092189 
L 151.758145 112.21462 
L 153.513283 112.799666 
" clip-path="url(#p1562301512)"/>
    <path d="M 190.141855 112.21462 
L 190.434378 113.092189 
L 191.896993 111.629574 
L 192.189516 121.282833 
L 186.631579 113.384712 
L 188.67924 113.677235 
L 188.386717 112.799666 
L 190.141855 112.21462 
" clip-path="url(#p1562301512)"/>
    <path d="M 226.742711 111.657289 
L 227.869716 112.784294 
L 228.71957 110.234732 
L 234.668548 121.282833 
L 223.620446 115.333856 
L 226.170008 114.484002 
L 225.043003 113.356997 
L 226.742711 111.657289 
" clip-path="url(#p1562301512)"/>
    <path d="M 263.139788 111.476544 
L 268.490545 114.686998 
L 268.696665 112.00744 
L 277.147579 121.282833 
L 264.986507 118.191035 
L 267.253826 116.748196 
L 261.903069 113.537742 
L 263.139788 111.476544 
" clip-path="url(#p1562301512)"/>
    <path d="M 299.623442 111.402445 
L 310.157776 115.91716 
L 309.999962 113.234323 
L 319.626611 121.282833 
L 307.159311 119.862508 
L 309.210892 118.126555 
L 298.676558 113.61184 
L 299.623442 111.402445 
" clip-path="url(#p1562301512)"/>
    <path d="M 43.448576 76.856577 
L 31.774018 85.195547 
L 34.149175 86.452983 
L 22.273389 90.504722 
L 29.957721 80.584948 
L 30.376866 83.239535 
L 42.051424 74.900566 
L 43.448576 76.856577 
" clip-path="url(#p1562301512)"/>
    <path d="M 80.228425 76.728425 
L 73.25096 83.705891 
L 75.800522 84.555744 
L 64.752421 90.504722 
L 70.701398 79.456621 
L 71.551252 82.006183 
L 78.528717 75.028717 
L 80.228425 76.728425 
" clip-path="url(#p1562301512)"/>
    <path d="M 117.037742 76.496931 
L 113.827288 81.847688 
L 116.506846 82.053808 
L 107.231452 90.504722 
L 110.32325 78.34365 
L 111.766089 80.610969 
L 114.976544 75.260212 
L 117.037742 76.496931 
" clip-path="url(#p1562301512)"/>
    <path d="M 153.81425 76.114279 
L 153.010383 80.133611 
L 155.603161 79.426489 
L 149.710484 90.504722 
L 148.531949 78.012247 
L 150.653312 79.662197 
L 151.457179 75.642864 
L 153.81425 76.114279 
" clip-path="url(#p1562301512)"/>
    <path d="M 190.442821 75.642864 
L 191.246688 79.662197 
L 193.368051 78.012247 
L 192.189516 90.504722 
L 186.296839 79.426489 
L 188.889617 80.133611 
L 188.08575 76.114279 
L 190.442821 75.642864 
" clip-path="url(#p1562301512)"/>
    <path d="M 226.923456 75.260212 
L 230.133911 80.610969 
L 231.57675 78.34365 
L 234.668548 90.504722 
L 225.393154 82.053808 
L 228.072712 81.847688 
L 224.862258 76.496931 
L 226.923456 75.260212 
" clip-path="url(#p1562301512)"/>
    <path d="M 263.371283 75.028717 
L 270.348748 82.006183 
L 271.198602 79.456621 
L 277.147579 90.504722 
L 266.099478 84.555744 
L 268.64904 83.705891 
L 261.671575 76.728425 
L 263.371283 75.028717 
" clip-path="url(#p1562301512)"/>
    <path d="M 299.848576 74.900566 
L 311.523134 83.239535 
L 311.942279 80.584948 
L 319.626611 90.504722 
L 307.750825 86.452983 
L 310.125982 85.195547 
L 298.451424 76.856577 
L 299.848576 74.900566 
" clip-path="url(#p1562301512)"/>
    <path d="M 43.599854 40.099854 
L 30.771929 52.927779 
L 33.32149 53.777633 
L 22.273389 59.726611 
L 28.222367 48.67851 
L 29.072221 51.228071 
L 41.900146 38.400146 
L 43.599854 40.099854 
" clip-path="url(#p1562301512)"/>
    <path d="M 80.356577 39.948576 
L 72.017607 51.623134 
L 74.672195 52.042279 
L 64.752421 59.726611 
L 68.804159 47.850825 
L 70.061596 50.225982 
L 78.400566 38.551424 
L 80.356577 39.948576 
" clip-path="url(#p1562301512)"/>
    <path d="M 117.11184 39.723442 
L 112.597126 50.257776 
L 115.279962 50.099962 
L 107.231452 59.726611 
L 108.651778 47.259311 
L 110.387731 49.310892 
L 114.902445 38.776558 
L 117.11184 39.723442 
" clip-path="url(#p1562301512)"/>
    <path d="M 153.82551 39.419971 
L 152.430017 49.188422 
L 154.979579 48.338568 
L 149.710484 59.726611 
L 147.840805 47.318743 
L 150.050426 48.84848 
L 151.445919 39.080029 
L 153.82551 39.419971 
" clip-path="url(#p1562301512)"/>
    <path d="M 190.454081 39.080029 
L 191.849574 48.84848 
L 194.059195 47.318743 
L 192.189516 59.726611 
L 186.920421 48.338568 
L 189.469983 49.188422 
L 188.07449 39.419971 
L 190.454081 39.080029 
" clip-path="url(#p1562301512)"/>
    <path d="M 226.997555 38.776558 
L 231.512269 49.310892 
L 233.248222 47.259311 
L 234.668548 59.726611 
L 226.620038 50.099962 
L 229.302874 50.257776 
L 224.78816 39.723442 
L 226.997555 38.776558 
" clip-path="url(#p1562301512)"/>
    <path d="M 263.499434 38.551424 
L 271.838404 50.225982 
L 273.095841 47.850825 
L 277.147579 59.726611 
L 267.227805 52.042279 
L 269.882393 51.623134 
L 261.543423 39.948576 
L 263.499434 38.551424 
" clip-path="url(#p1562301512)"/>
    <path d="M 299.999854 38.400146 
L 312.827779 51.228071 
L 313.677633 48.67851 
L 319.626611 59.726611 
L 308.57851 53.777633 
L 311.128071 52.927779 
L 298.300146 40.099854 
L 299.999854 38.400146 
" clip-path="url(#p1562301512)"/>
   </g>
   <g id="matplotlib.axis_1">
    <g id="xtick_1">
     <g id="line2d_1">
      <defs>
       <path id="m40726bdb9c" d="M 0 0 
L 0 3.5 
" style="stroke: #000000; stroke-width: 0.8"/>
      </defs>
      <g>
       <use xlink:href="#m40726bdb9c" x="42.75" y="327.7" style="stroke: #000000; stroke-width: 0.8"/>
      </g>
     </g>
    </g>
    <g id="xtick_2">
     <g id="line2d_2">
      <g>
       <use xlink:href="#m40726bdb9c" x="106.85" y="327.7" style="stroke: #000000; stroke-width: 0.8"/>
      </g>
     </g>
    </g>
    <g id="xtick_3">
     <g id="line2d_3">
      <g>
       <use xlink:href="#m40726bdb9c" x="170.95" y="327.7" style="stroke: #000000; stroke-width: 0.8"/>
      </g>
     </g>
    </g>
    <g id="xtick_4">
     <g id="line2d_4">
      <g>
       <use xlink:href="#m40726bdb9c" x="235.05" y="327.7" style="stroke: #000000; stroke-width: 0.8"/>
      </g>
     </g>
    </g>
    <g id="xtick_5">
     <g id="line2d_5">
      <g>
       <use xlink:href="#m40726bdb9c" x="299.15" y="327.7" style="stroke: #000000; stroke-width: 0.8"/>
      </g>
     </g>
    </g>
   </g>
   <g id="matplotlib.axis_2">
    <g id="ytick_1">
     <g id="line2d_6">
      <defs>
       <path id="md14ddac353" d="M 0 0 
L -3.5 0 
" style="stroke: #000000; stroke-width: 0.8"/>
      </defs>
      <g>
       <use xlink:href="#md14ddac353" x="10.7" y="295.65" style="stroke: #000000; stroke-width: 0.8"/>
      </g>
     </g>
    </g>
    <g id="ytick_2">
     <g id="line2d_7">
      <g>
       <use xlink:href="#md14ddac353" x="10.7" y="231.55" style="stroke: #000000; stroke-width: 0.8"/>
      </g>
     </g>
    </g>
    <g id="ytick_3">
     <g id="line2d_8">
      <g>
       <use xlink:href="#md14ddac353" x="10.7" y="167.45" style="stroke: #000000; stroke-width: 0.8"/>
      </g>
     </g>
    </g>
    <g id="ytick_4">
     <g id="line2d_9">
      <g>
       <use xlink:href="#md14ddac353" x="10.7" y="103.35" style="stroke: #000000; stroke-width: 0.8"/>
      </g>
     </g>
    </g>
    <g id="ytick_5">
     <g id="line2d_10">
      <g>
       <use xlink:href="#md14ddac353" x="10.7" y="39.25" style="stroke: #000000; stroke-width: 0.8"/>
      </g>
     </g>
    </g>
   </g>
   <g id="patch_3">
    <path d="M 10.7 327.7 
L 10.7 7.2 
" style="fill: none; stroke: #000000; stroke-width: 0.8; stroke-linejoin: miter; stroke-linecap: square"/>
   </g>
   <g id="patch_4">
    <path d="M 331.2 327.7 
L 331.2 7.2 
" style="fill: none; stroke: #000000; stroke-width: 0.8; stroke-linejoin: miter; stroke-linecap: square"/>
   </g>
   <g id="patch_5">
    <path d="M 10.7 327.7 
L 331.2 327.7 
" style="fill: none; stroke: #000000; stroke-width: 0.8; stroke-linejoin: miter; stroke-linecap: square"/>
   </g>
   <g id="patch_6">
    <path d="M 10.7 7.2 
L 331.2 7.2 
" style="fill: none; stroke: #000000; stroke-width: 0.8; stroke-linejoin: miter; stroke-linecap: square"/>
   </g>
  </g>
 </g>
 <defs>
  <clipPath id="p1562301512">
   <rect x="10.7" y="7.2" width="320.5" height="320.5"/>
  </clipPath>
 </defs>
</svg>
