<?xml version="1.0" encoding="utf-8" standalone="no"?>
<!DOCTYPE svg PUBLIC "-//W3C//DTD SVG 1.1//EN"
  "http://www.w3.org/Graphics/SVG/1.1/DTD/svg11.dtd">
<svg xmlns:xlink="http://www.w3.org/1999/xlink" width="338.4pt" height="338.4pt" viewBox="0 0 338.4 338.4" xmlns="http://www.w3.org/2000/svg" version="1.1">
 <metadata>
  <rdf:RDF xmlns:dc="http://purl.org/dc/elements/1.1/" xmlns:cc="http://creativecommons.org/ns#" xmlns:rdf="http://www.w3.org/1999/02/22-rdf-syntax-ns#">
   <cc:Work>
    <dc:type rdf:resource="http://purl.org/dc/dcmitype/StillImage"/>
    <dc:date>2024-05-20T17:25:49.970145</dc:date>
    <dc:format>image/svg+xml</dc:format>
    <dc:creator>
     <cc:Agent>
      <dc:title>Matplotlib v3.8.4, https://matplotlib.org/</dc:title>
     </cc:Agent>
    </dc:creator>
   </cc:Work>
  </rdf:RDF>
 </metadata>
 <defs>
  <style type="text/css">*{stroke-linejoin: round; stroke-linecap: butt}</style>
 </defs>
 <g id="figure_1">
  <g id="patch_1">
   <path d="M 0 338.4 
L 338.4 338.4 
L 338.4 0 
L 0 0 
z
" style="fill: #ffffff"/>
  </g>
  <g id="axes_1">
   <g id="patch_2">
    <path d="M 10.7 327.7 
L 331.2 327.7 
L 331.2 7.2 
L 10.7 7.2 
z
" style="fill: #ffffff"/>
   </g>
   <g id="Quiver_1">
    <path d="M 43.599854 294.800146 
L 56.427779 307.628071 
L 57.277633 305.07851 
L 63.226611 316.126611 
L 52.17851 310.177633 
L 54.728071 309.327779 
L 41.900146 296.499854 
L 43.599854 294.800146 
" clip-path="url(#pb883580667)"/>
    <path d="M 80.356577 294.951424 
L 88.695547 306.625982 
L 89.952983 304.250825 
L 94.004722 316.126611 
L 84.084948 308.442279 
L 86.739535 308.023134 
L 78.400566 296.348576 
L 80.356577 294.951424 
" clip-path="url(#pb883580667)"/>
    <path d="M 117.11184 295.176558 
L 121.626555 305.710892 
L 123.362508 303.659311 
L 124.782833 316.126611 
L 116.734323 306.499962 
L 119.41716 306.657776 
L 114.902445 296.123442 
L 117.11184 295.176558 
" clip-path="url(#pb883580667)"/>
    <path d="M 153.82551 295.480029 
L 155.221003 305.24848 
L 157.430623 303.718743 
L 155.560944 316.126611 
L 150.29185 304.738568 
L 152.841412 305.588422 
L 151.445919 295.819971 
L 153.82551 295.480029 
" clip-path="url(#pb883580667)"/>
    <path d="M 190.454081 295.819971 
L 189.058588 305.588422 
L 191.60815 304.738568 
L 186.339056 316.126611 
L 184.469377 303.718743 
L 186.678997 305.24848 
L 188.07449 295.480029 
L 190.454081 295.819971 
" clip-path="url(#pb883580667)"/>
    <path d="M 226.997555 296.123442 
L 222.48284 306.657776 
L 225.165677 306.499962 
L 217.117167 316.126611 
L 218.537492 303.659311 
L 220.273445 305.710892 
L 224.78816 295.176558 
L 226.997555 296.123442 
" clip-path="url(#pb883580667)"/>
    <path d="M 263.499434 296.348576 
L 255.160465 308.023134 
L 257.815052 308.442279 
L 247.895278 316.126611 
L 251.947017 304.250825 
L 253.204453 306.625982 
L 261.543423 294.951424 
L 263.499434 296.348576 
" clip-path="url(#pb883580667)"/>
    <path d="M 299.999854 296.499854 
L 287.171929 309.327779 
L 289.72149 310.177633 
L 278.673389 316.126611 
L 284.622367 305.07851 
L 285.472221 307.628071 
L 298.300146 294.800146 
L 299.999854 296.499854 
" clip-path="url(#pb883580667)"/>
    <path d="M 43.448576 258.043423 
L 55.123134 266.382393 
L 55.542279 263.727805 
L 63.226611 273.647579 
L 51.350825 269.595841 
L 53.725982 268.338404 
L 42.051424 259.999434 
L 43.448576 258.043423 
" clip-path="url(#pb883580667)"/>
    <path d="M 80.228425 258.171575 
L 87.205891 265.14904 
L 88.055744 262.599478 
L 94.004722 273.647579 
L 82.956621 267.698602 
L 85.506183 266.848748 
L 78.528717 259.871283 
L 80.228425 258.171575 
" clip-path="url(#pb883580667)"/>
    <path d="M 117.037742 258.403069 
L 120.248196 263.753826 
L 121.691035 261.486507 
L 124.782833 273.647579 
L 115.50744 265.196665 
L 118.186998 264.990545 
L 114.976544 259.639788 
L 117.037742 258.403069 
" clip-path="url(#pb883580667)"/>
    <path d="M 153.81425 258.785721 
L 154.618116 262.805054 
L 156.73948 261.155104 
L 155.560944 273.647579 
L 149.668267 262.569347 
L 152.261045 263.276468 
L 151.457179 259.257136 
L 153.81425 258.785721 
" clip-path="url(#pb883580667)"/>
    <path d="M 190.442821 259.257136 
L 189.638955 263.276468 
L 192.231733 262.569347 
L 186.339056 273.647579 
L 185.16052 261.155104 
L 187.281884 262.805054 
L 188.08575 258.785721 
L 190.442821 259.257136 
" clip-path="url(#pb883580667)"/>
    <path d="M 226.923456 259.639788 
L 223.713002 264.990545 
L 226.39256 265.196665 
L 217.117167 273.647579 
L 220.208965 261.486507 
L 221.651804 263.753826 
L 224.862258 258.403069 
L 226.923456 259.639788 
" clip-path="url(#pb883580667)"/>
    <path d="M 263.371283 259.871283 
L 256.393817 266.848748 
L 258.943379 267.698602 
L 247.895278 273.647579 
L 253.844256 262.599478 
L 254.694109 265.14904 
L 261.671575 258.171575 
L 263.371283 259.871283 
" clip-path="url(#pb883580667)"/>
    <path d="M 299.848576 259.999434 
L 288.174018 268.338404 
L 290.549175 269.595841 
L 278.673389 273.647579 
L 286.357721 263.727805 
L 286.776866 266.382393 
L 298.451424 258.043423 
L 299.848576 259.999434 
" clip-path="url(#pb883580667)"/>
    <path d="M 43.223442 221.28816 
L 53.757776 225.802874 
L 53.599962 223.120038 
L 63.226611 231.168548 
L 50.759311 229.748222 
L 52.810892 228.012269 
L 42.276558 223.497555 
L 43.223442 221.28816 
" clip-path="url(#pb883580667)"/>
    <path d="M 79.996931 221.362258 
L 85.347688 224.572712 
L 85.553808 221.893154 
L 94.004722 231.168548 
L 81.84365 228.07675 
L 84.110969 226.633911 
L 78.760212 223.423456 
L 79.996931 221.362258 
" clip-path="url(#pb883580667)"/>
    <path d="M 116.856997 221.543003 
L 117.984002 222.670008 
L 118.833856 220.120446 
L 124.782833 231.168548 
L 113.734732 225.21957 
L 116.284294 224.369716 
L 115.157289 223.242711 
L 116.856997 221.543003 
" clip-path="url(#pb883580667)"/>
    <path d="M 153.513283 222.100334 
L 153.805806 222.977903 
L 155.268421 221.515288 
L 155.560944 231.168548 
L 150.003007 223.270426 
L 152.050668 223.562949 
L 151.758145 222.68538 
L 153.513283 222.100334 
" clip-path="url(#pb883580667)"/>
    <path d="M 190.141855 222.68538 
L 189.849332 223.562949 
L 191.896993 223.270426 
L 186.339056 231.168548 
L 186.631579 221.515288 
L 188.094194 222.977903 
L 188.386717 222.100334 
L 190.141855 222.68538 
" clip-path="url(#pb883580667)"/>
    <path d="M 226.742711 223.242711 
L 225.615706 224.369716 
L 228.165268 225.21957 
L 217.117167 231.168548 
L 223.066144 220.120446 
L 223.915998 222.670008 
L 225.043003 221.543003 
L 226.742711 223.242711 
" clip-path="url(#pb883580667)"/>
    <path d="M 263.139788 223.423456 
L 257.789031 226.633911 
L 260.05635 228.07675 
L 247.895278 231.168548 
L 256.346192 221.893154 
L 256.552312 224.572712 
L 261.903069 221.362258 
L 263.139788 223.423456 
" clip-path="url(#pb883580667)"/>
    <path d="M 299.623442 223.497555 
L 289.089108 228.012269 
L 291.140689 229.748222 
L 278.673389 231.168548 
L 288.300038 223.120038 
L 288.142224 225.802874 
L 298.676558 221.28816 
L 299.623442 223.497555 
" clip-path="url(#pb883580667)"/>
    <path d="M 42.919971 184.57449 
L 52.688422 185.969983 
L 51.838568 183.420421 
L 63.226611 188.689516 
L 50.818743 190.559195 
L 52.34848 188.349574 
L 42.580029 186.954081 
L 42.919971 184.57449 
" clip-path="url(#pb883580667)"/>
    <path d="M 79.614279 184.58575 
L 83.633611 185.389617 
L 82.926489 182.796839 
L 94.004722 188.689516 
L 81.512247 189.868051 
L 83.162197 187.746688 
L 79.142864 186.942821 
L 79.614279 184.58575 
" clip-path="url(#pb883580667)"/>
    <path d="M 116.299666 184.886717 
L 117.177235 185.17924 
L 116.884712 183.131579 
L 124.782833 188.689516 
L 115.129574 188.396993 
L 116.592189 186.934378 
L 115.71462 186.641855 
L 116.299666 184.886717 
" clip-path="url(#pb883580667)"/>
    <path d="M 152.928237 185.471763 
L 153.22076 185.764286 
L 153.513283 184.886717 
L 155.560944 188.689516 
L 151.758145 186.641855 
L 152.635714 186.349332 
L 152.343191 186.056809 
L 152.928237 185.471763 
" clip-path="url(#pb883580667)"/>
    <path d="M 189.556809 186.056809 
L 189.264286 186.349332 
L 190.141855 186.641855 
L 186.339056 188.689516 
L 188.386717 184.886717 
L 188.67924 185.764286 
L 188.971763 185.471763 
L 189.556809 186.056809 
" clip-path="url(#pb883580667)"/>
    <path d="M 226.18538 186.641855 
L 225.307811 186.934378 
L 226.770426 188.396993 
L 217.117167 188.689516 
L 225.015288 183.131579 
L 224.722765 185.17924 
L 225.600334 184.886717 
L 226.18538 186.641855 
" clip-path="url(#pb883580667)"/>
    <path d="M 262.757136 186.942821 
L 258.737803 187.746688 
L 260.387753 189.868051 
L 247.895278 188.689516 
L 258.973511 182.796839 
L 258.266389 185.389617 
L 262.285721 184.58575 
L 262.757136 186.942821 
" clip-path="url(#pb883580667)"/>
    <path d="M 299.319971 186.954081 
L 289.55152 188.349574 
L 291.081257 190.559195 
L 278.673389 188.689516 
L 290.061432 183.420421 
L 289.211578 185.969983 
L 298.980029 184.57449 
L 299.319971 186.954081 
" clip-path="url(#pb883580667)"/>
    <path d="M 42.580029 147.945919 
L 52.34848 146.550426 
L 50.818743 144.340805 
L 63.226611 146.210484 
L 51.838568 151.479579 
L 52.688422 148.930017 
L 42.919971 150.32551 
L 42.580029 147.945919 
" clip-path="url(#pb883580667)"/>
    <path d="M 79.142864 147.957179 
L 83.162197 147.153312 
L 81.512247 145.031949 
L 94.004722 146.210484 
L 82.926489 152.103161 
L 83.633611 149.510383 
L 79.614279 150.31425 
L 79.142864 147.957179 
" clip-path="url(#pb883580667)"/>
    <path d="M 115.71462 148.258145 
L 116.592189 147.965622 
L 115.129574 146.503007 
L 124.782833 146.210484 
L 116.884712 151.768421 
L 117.177235 149.72076 
L 116.299666 150.013283 
L 115.71462 148.258145 
" clip-path="url(#pb883580667)"/>
    <path d="M 152.343191 148.843191 
L 152.635714 148.550668 
L 151.758145 148.258145 
L 155.560944 146.210484 
L 153.513283 150.013283 
L 153.22076 149.135714 
L 152.928237 149.428237 
L 152.343191 148.843191 
" clip-path="url(#pb883580667)"/>
    <path d="M 188.971763 149.428237 
L 188.67924 149.135714 
L 188.386717 150.013283 
L 186.339056 146.210484 
L 190.141855 148.258145 
L 189.264286 148.550668 
L 189.556809 148.843191 
L 188.971763 149.428237 
" clip-path="url(#pb883580667)"/>
    <path d="M 225.600334 150.013283 
L 224.722765 149.72076 
L 225.015288 151.768421 
L 217.117167 146.210484 
L 226.770426 146.503007 
L 225.307811 147.965622 
L 226.18538 148.258145 
L 225.600334 150.013283 
" clip-path="url(#pb883580667)"/>
    <path d="M 262.285721 150.31425 
L 258.266389 149.510383 
L 258.973511 152.103161 
L 247.895278 146.210484 
L 260.387753 145.031949 
L 258.737803 147.153312 
L 262.757136 147.957179 
L 262.285721 150.31425 
" clip-path="url(#pb883580667)"/>
    <path d="M 298.980029 150.32551 
L 289.211578 148.930017 
L 290.061432 151.479579 
L 278.673389 146.210484 
L 291.081257 144.340805 
L 289.55152 146.550426 
L 299.319971 147.945919 
L 298.980029 150.32551 
" clip-path="url(#pb883580667)"/>
    <path d="M 42.276558 111.402445 
L 52.810892 106.887731 
L 50.759311 105.151778 
L 63.226611 103.731452 
L 53.599962 111.779962 
L 53.757776 109.097126 
L 43.223442 113.61184 
L 42.276558 111.402445 
" clip-path="url(#pb883580667)"/>
    <path d="M 78.760212 111.476544 
L 84.110969 108.266089 
L 81.84365 106.82325 
L 94.004722 103.731452 
L 85.553808 113.006846 
L 85.347688 110.327288 
L 79.996931 113.537742 
L 78.760212 111.476544 
" clip-path="url(#pb883580667)"/>
    <path d="M 115.157289 111.657289 
L 116.284294 110.530284 
L 113.734732 109.68043 
L 124.782833 103.731452 
L 118.833856 114.779554 
L 117.984002 112.229992 
L 116.856997 113.356997 
L 115.157289 111.657289 
" clip-path="url(#pb883580667)"/>
    <path d="M 151.758145 112.21462 
L 152.050668 111.337051 
L 150.003007 111.629574 
L 155.560944 103.731452 
L 155.268421 113.384712 
L 153.805806 111.922097 
L 153.513283 112.799666 
L 151.758145 112.21462 
" clip-path="url(#pb883580667)"/>
    <path d="M 188.386717 112.799666 
L 188.094194 111.922097 
L 186.631579 113.384712 
L 186.339056 103.731452 
L 191.896993 111.629574 
L 189.849332 111.337051 
L 190.141855 112.21462 
L 188.386717 112.799666 
" clip-path="url(#pb883580667)"/>
    <path d="M 225.043003 113.356997 
L 223.915998 112.229992 
L 223.066144 114.779554 
L 217.117167 103.731452 
L 228.165268 109.68043 
L 225.615706 110.530284 
L 226.742711 111.657289 
L 225.043003 113.356997 
" clip-path="url(#pb883580667)"/>
    <path d="M 261.903069 113.537742 
L 256.552312 110.327288 
L 256.346192 113.006846 
L 247.895278 103.731452 
L 260.05635 106.82325 
L 257.789031 108.266089 
L 263.139788 111.476544 
L 261.903069 113.537742 
" clip-path="url(#pb883580667)"/>
    <path d="M 298.676558 113.61184 
L 288.142224 109.097126 
L 288.300038 111.779962 
L 278.673389 103.731452 
L 291.140689 105.151778 
L 289.089108 106.887731 
L 299.623442 111.402445 
L 298.676558 113.61184 
" clip-path="url(#pb883580667)"/>
    <path d="M 42.051424 74.900566 
L 53.725982 66.561596 
L 51.350825 65.304159 
L 63.226611 61.252421 
L 55.542279 71.172195 
L 55.123134 68.517607 
L 43.448576 76.856577 
L 42.051424 74.900566 
" clip-path="url(#pb883580667)"/>
    <path d="M 78.528717 75.028717 
L 85.506183 68.051252 
L 82.956621 67.201398 
L 94.004722 61.252421 
L 88.055744 72.300522 
L 87.205891 69.75096 
L 80.228425 76.728425 
L 78.528717 75.028717 
" clip-path="url(#pb883580667)"/>
    <path d="M 114.976544 75.260212 
L 118.186998 69.909455 
L 115.50744 69.703335 
L 124.782833 61.252421 
L 121.691035 73.413493 
L 120.248196 71.146174 
L 117.037742 76.496931 
L 114.976544 75.260212 
" clip-path="url(#pb883580667)"/>
    <path d="M 151.457179 75.642864 
L 152.261045 71.623532 
L 149.668267 72.330653 
L 155.560944 61.252421 
L 156.73948 73.744896 
L 154.618116 72.094946 
L 153.81425 76.114279 
L 151.457179 75.642864 
" clip-path="url(#pb883580667)"/>
    <path d="M 188.08575 76.114279 
L 187.281884 72.094946 
L 185.16052 73.744896 
L 186.339056 61.252421 
L 192.231733 72.330653 
L 189.638955 71.623532 
L 190.442821 75.642864 
L 188.08575 76.114279 
" clip-path="url(#pb883580667)"/>
    <path d="M 224.862258 76.496931 
L 221.651804 71.146174 
L 220.208965 73.413493 
L 217.117167 61.252421 
L 226.39256 69.703335 
L 223.713002 69.909455 
L 226.923456 75.260212 
L 224.862258 76.496931 
" clip-path="url(#pb883580667)"/>
    <path d="M 261.671575 76.728425 
L 254.694109 69.75096 
L 253.844256 72.300522 
L 247.895278 61.252421 
L 258.943379 67.201398 
L 256.393817 68.051252 
L 263.371283 75.028717 
L 261.671575 76.728425 
" clip-path="url(#pb883580667)"/>
    <path d="M 298.451424 76.856577 
L 286.776866 68.517607 
L 286.357721 71.172195 
L 278.673389 61.252421 
L 290.549175 65.304159 
L 288.174018 66.561596 
L 299.848576 74.900566 
L 298.451424 76.856577 
" clip-path="url(#pb883580667)"/>
    <path d="M 41.900146 38.400146 
L 54.728071 25.572221 
L 52.17851 24.722367 
L 63.226611 18.773389 
L 57.277633 29.82149 
L 56.427779 27.271929 
L 43.599854 40.099854 
L 41.900146 38.400146 
" clip-path="url(#pb883580667)"/>
    <path d="M 78.400566 38.551424 
L 86.739535 26.876866 
L 84.084948 26.457721 
L 94.004722 18.773389 
L 89.952983 30.649175 
L 88.695547 28.274018 
L 80.356577 39.948576 
L 78.400566 38.551424 
" clip-path="url(#pb883580667)"/>
    <path d="M 114.902445 38.776558 
L 119.41716 28.242224 
L 116.734323 28.400038 
L 124.782833 18.773389 
L 123.362508 31.240689 
L 121.626555 29.189108 
L 117.11184 39.723442 
L 114.902445 38.776558 
" clip-path="url(#pb883580667)"/>
    <path d="M 151.445919 39.080029 
L 152.841412 29.311578 
L 150.29185 30.161432 
L 155.560944 18.773389 
L 157.430623 31.181257 
L 155.221003 29.65152 
L 153.82551 39.419971 
L 151.445919 39.080029 
" clip-path="url(#pb883580667)"/>
    <path d="M 188.07449 39.419971 
L 186.678997 29.65152 
L 184.469377 31.181257 
L 186.339056 18.773389 
L 191.60815 30.161432 
L 189.058588 29.311578 
L 190.454081 39.080029 
L 188.07449 39.419971 
" clip-path="url(#pb883580667)"/>
    <path d="M 224.78816 39.723442 
L 220.273445 29.189108 
L 218.537492 31.240689 
L 217.117167 18.773389 
L 225.165677 28.400038 
L 222.48284 28.242224 
L 226.997555 38.776558 
L 224.78816 39.723442 
" clip-path="url(#pb883580667)"/>
    <path d="M 261.543423 39.948576 
L 253.204453 28.274018 
L 251.947017 30.649175 
L 247.895278 18.773389 
L 257.815052 26.457721 
L 255.160465 26.876866 
L 263.499434 38.551424 
L 261.543423 39.948576 
" clip-path="url(#pb883580667)"/>
    <path d="M 298.300146 40.099854 
L 285.472221 27.271929 
L 284.622367 29.82149 
L 278.673389 18.773389 
L 289.72149 24.722367 
L 287.171929 25.572221 
L 299.999854 38.400146 
L 298.300146 40.099854 
" clip-path="url(#pb883580667)"/>
   </g>
   <g id="matplotlib.axis_1">
    <g id="xtick_1">
     <g id="line2d_1">
      <defs>
       <path id="m8345f7cca7" d="M 0 0 
L 0 3.5 
" style="stroke: #000000; stroke-width: 0.8"/>
      </defs>
      <g>
       <use xlink:href="#m8345f7cca7" x="42.75" y="327.7" style="stroke: #000000; stroke-width: 0.8"/>
      </g>
     </g>
    </g>
    <g id="xtick_2">
     <g id="line2d_2">
      <g>
       <use xlink:href="#m8345f7cca7" x="106.85" y="327.7" style="stroke: #000000; stroke-width: 0.8"/>
      </g>
     </g>
    </g>
    <g id="xtick_3">
     <g id="line2d_3">
      <g>
       <use xlink:href="#m8345f7cca7" x="170.95" y="327.7" style="stroke: #000000; stroke-width: 0.8"/>
      </g>
     </g>
    </g>
    <g id="xtick_4">
     <g id="line2d_4">
      <g>
       <use xlink:href="#m8345f7cca7" x="235.05" y="327.7" style="stroke: #000000; stroke-width: 0.8"/>
      </g>
     </g>
    </g>
    <g id="xtick_5">
     <g id="line2d_5">
      <g>
       <use xlink:href="#m8345f7cca7" x="299.15" y="327.7" style="stroke: #000000; stroke-width: 0.8"/>
      </g>
     </g>
    </g>
   </g>
   <g id="matplotlib.axis_2">
    <g id="ytick_1">
     <g id="line2d_6">
      <defs>
       <path id="m4db2c7782c" d="M 0 0 
L -3.5 0 
" style="stroke: #000000; stroke-width: 0.8"/>
      </defs>
      <g>
       <use xlink:href="#m4db2c7782c" x="10.7" y="295.65" style="stroke: #000000; stroke-width: 0.8"/>
      </g>
     </g>
    </g>
    <g id="ytick_2">
     <g id="line2d_7">
      <g>
       <use xlink:href="#m4db2c7782c" x="10.7" y="231.55" style="stroke: #000000; stroke-width: 0.8"/>
      </g>
     </g>
    </g>
    <g id="ytick_3">
     <g id="line2d_8">
      <g>
       <use xlink:href="#m4db2c7782c" x="10.7" y="167.45" style="stroke: #000000; stroke-width: 0.8"/>
      </g>
     </g>
    </g>
    <g id="ytick_4">
     <g id="line2d_9">
      <g>
       <use xlink:href="#m4db2c7782c" x="10.7" y="103.35" style="stroke: #000000; stroke-width: 0.8"/>
      </g>
     </g>
    </g>
    <g id="ytick_5">
     <g id="line2d_10">
      <g>
       <use xlink:href="#m4db2c7782c" x="10.7" y="39.25" style="stroke: #000000; stroke-width: 0.8"/>
      </g>
     </g>
    </g>
   </g>
   <g id="patch_3">
    <path d="M 10.7 327.7 
L 10.7 7.2 
" style="fill: none; stroke: #000000; stroke-width: 0.8; stroke-linejoin: miter; stroke-linecap: square"/>
   </g>
   <g id="patch_4">
    <path d="M 331.2 327.7 
L 331.2 7.2 
" style="fill: none; stroke: #000000; stroke-width: 0.8; stroke-linejoin: miter; stroke-linecap: square"/>
   </g>
   <g id="patch_5">
    <path d="M 10.7 327.7 
L 331.2 327.7 
" style="fill: none; stroke: #000000; stroke-width: 0.8; stroke-linejoin: miter; stroke-linecap: square"/>
   </g>
   <g id="patch_6">
    <path d="M 10.7 7.2 
L 331.2 7.2 
" style="fill: none; stroke: #000000; stroke-width: 0.8; stroke-linejoin: miter; stroke-linecap: square"/>
   </g>
  </g>
 </g>
 <defs>
  <clipPath id="pb883580667">
   <rect x="10.7" y="7.2" width="320.5" height="320.5"/>
  </clipPath>
 </defs>
</svg>
